<svg xmlns="http://www.w3.org/2000/svg" xmlns:xlink="http://www.w3.org/1999/xlink" width="22" height="22" viewBox="0 0 22 22">
  <defs>
    <clipPath id="clip-path">
      <rect id="Rectangle_1908" data-name="Rectangle 1908" width="22" height="22" transform="translate(280 708)" fill="#ff8303" stroke="#707070" stroke-width="1"/>
    </clipPath>
  </defs>
  <g id="icon-tw-color" transform="translate(-280 -708)" clip-path="url(#clip-path)">
    <path id="twitter_2_" data-name="twitter (2)" d="M.438,18.151a12.9,12.9,0,0,0,6.927,2A12.668,12.668,0,0,0,20.216,7.267a5.261,5.261,0,0,0,1.9-3.562.7.7,0,0,0-1.047-.6,2.873,2.873,0,0,1-2.336.392,4.961,4.961,0,0,0-5.876-.791,4.773,4.773,0,0,0-2.592,4.474A11.511,11.511,0,0,1,2.8,3.1a.7.7,0,0,0-1.136.093,4.842,4.842,0,0,0-.108,4.782.723.723,0,0,0-.6.72,4.9,4.9,0,0,0,1.707,3.7.694.694,0,0,0-.178.72A4.987,4.987,0,0,0,5.3,16.14,8.088,8.088,0,0,1,.9,16.875a.7.7,0,0,0-.458,1.276Zm7.117-1.773a.7.7,0,0,0-.408-1.245A3.623,3.623,0,0,1,4.3,13.653a4.9,4.9,0,0,0,.949-.152A.7.7,0,0,0,5.2,12.149,3.566,3.566,0,0,1,2.5,9.722a4.794,4.794,0,0,0,1.06.141.7.7,0,0,0,.4-1.275A3.452,3.452,0,0,1,2.48,4.82,12.916,12.916,0,0,0,11.036,8.64a.693.693,0,0,0,.71-.849,3.39,3.39,0,0,1,1.769-3.86,3.552,3.552,0,0,1,4.342.66,3.5,3.5,0,0,0,2.521.287,4.477,4.477,0,0,1-1.267,1.49.7.7,0,0,0-.3.6,11.3,11.3,0,0,1-3.11,8.3,11.376,11.376,0,0,1-8.34,3.487,11.666,11.666,0,0,1-3.743-.613,9.381,9.381,0,0,0,3.932-1.766Z" transform="translate(279.885 707.884)" fill="#ff8303"/>
  </g>
</svg>
