<svg xmlns="http://www.w3.org/2000/svg" xmlns:xlink="http://www.w3.org/1999/xlink" width="24" height="24" viewBox="0 0 24 24">
  <defs>
    <clipPath id="clip-path">
      <rect id="Rectangle_1683" data-name="Rectangle 1683" width="24" height="24" transform="translate(1027 437)" fill="#3c3c3c" stroke="#707070" stroke-width="1"/>
    </clipPath>
  </defs>
  <g id="icon-tab-3" transform="translate(-1027 -437)" clip-path="url(#clip-path)">
    <g id="web-development" transform="translate(1027 439.859)">
      <path id="Path_959" data-name="Path 959" d="M23.3,14.063h-.7V2.109A2.112,2.112,0,0,0,20.484,0H3.516A2.112,2.112,0,0,0,1.406,2.109V14.063H.7a.7.7,0,0,0-.7.7,3.52,3.52,0,0,0,3.516,3.516H20.484A3.52,3.52,0,0,0,24,14.766.7.7,0,0,0,23.3,14.063ZM2.813,2.109a.7.7,0,0,1,.7-.7H20.484a.7.7,0,0,1,.7.7V14.063H2.813ZM20.484,16.875H3.516a2.113,2.113,0,0,1-1.989-1.407H22.473A2.113,2.113,0,0,1,20.484,16.875Zm0,0" fill="#3c3c3c"/>
      <path id="Path_960" data-name="Path 960" d="M9.286,5.479a.7.7,0,0,0-.994,0L5.479,8.292a.7.7,0,0,0,0,.994L8.292,12.1a.7.7,0,0,0,.994-.994L6.971,8.789,9.286,6.474A.7.7,0,0,0,9.286,5.479Zm0,0" transform="translate(-1.055 -1.055)" fill="#3c3c3c"/>
      <path id="Path_961" data-name="Path 961" d="M20.653,5.479a.7.7,0,0,0-.994.994l2.315,2.315L19.659,11.1a.7.7,0,0,0,.994.994l2.813-2.812a.7.7,0,0,0,0-.994Zm0,0" transform="translate(-3.891 -1.055)" fill="#3c3c3c"/>
      <path id="Path_962" data-name="Path 962" d="M16.1,3.552A.7.7,0,0,0,15.212,4L12.4,12.434a.7.7,0,1,0,1.334.445l2.812-8.437A.7.7,0,0,0,16.1,3.552Zm0,0" transform="translate(-2.473 -0.703)" fill="#3c3c3c"/>
    </g>
  </g>
</svg>
