<svg xmlns="http://www.w3.org/2000/svg" xmlns:xlink="http://www.w3.org/1999/xlink" width="12" height="12" viewBox="0 0 12 12">
  <defs>
    <clipPath id="clip-path">
      <rect id="Rectangle_107" data-name="Rectangle 107" width="12" height="12" transform="translate(1691 3029)" fill="#fff" stroke="#707070" stroke-width="1"/>
    </clipPath>
    <linearGradient id="linear-gradient" x1="0.5" x2="0.5" y2="1" gradientUnits="objectBoundingBox">
      <stop offset="0" stop-color="#18afff"/>
      <stop offset="1" stop-color="#0062df"/>
    </linearGradient>
    <linearGradient id="linear-gradient-2" x1="0.5" x2="0.5" y2="1" gradientUnits="objectBoundingBox">
      <stop offset="0" stop-color="#32adfd"/>
      <stop offset="1" stop-color="#226ee0"/>
    </linearGradient>
  </defs>
  <g id="icon-like" transform="translate(-1691 -3029)" clip-path="url(#clip-path)">
    <g id="download_2_" data-name="download (2)" transform="translate(1691 3029)">
      <path id="Path_42" data-name="Path 42" d="M6,0a6,6,0,1,0,6,6A6,6,0,0,0,6,0Z" fill="url(#linear-gradient)"/>
      <path id="Path_43" data-name="Path 43" d="M6,0a6,6,0,1,0,6,6A6,6,0,0,0,6,0Z" fill="url(#linear-gradient-2)"/>
      <path id="Path_44" data-name="Path 44" d="M9.5,5.878a.509.509,0,0,1,.254.506.549.549,0,0,1-.355.544.547.547,0,0,1,.067.41.748.748,0,0,1-.5.517.4.4,0,0,1,.011.465c-.139.221-.259.305-.793.305H6c-.741,0-1.125-.41-1.125-.75V6.124c0-.923,1.1-1.706,1.1-2.348l-.08-.8a.338.338,0,0,1,.044-.2.71.71,0,0,1,.476-.15.841.841,0,0,1,.4.092,1.215,1.215,0,0,1,.549,1.156A10.477,10.477,0,0,1,7.013,4.9a7.547,7.547,0,0,1,1.409-.149c.8,0,1.312.142,1.312.631A1,1,0,0,1,9.5,5.878ZM3.075,5.625h.6a.45.45,0,0,1,.45.45v2.85a.45.45,0,0,1-.45.45h-.6a.45.45,0,0,1-.45-.45V6.075A.45.45,0,0,1,3.075,5.625Z" transform="translate(-0.375 -0.375)" fill="#fff"/>
    </g>
  </g>
</svg>
