<svg xmlns="http://www.w3.org/2000/svg" xmlns:xlink="http://www.w3.org/1999/xlink" width="24" height="24" viewBox="0 0 24 24">
  <defs>
    <clipPath id="clip-path">
      <rect id="Rectangle_1690" data-name="Rectangle 1690" width="24" height="24" transform="translate(694 445)" fill="#3c3c3c" stroke="#707070" stroke-width="1"/>
    </clipPath>
  </defs>
  <g id="icon-tab-2" transform="translate(-694 -445)" clip-path="url(#clip-path)">
    <g id="hosting" transform="translate(694 445)">
      <path id="Path_963" data-name="Path 963" d="M21.35,18.694a2.654,2.654,0,0,0-2.554,1.95H14.558a2.661,2.661,0,0,0-1.852-1.855V16.111h6.972A4.25,4.25,0,0,0,20,7.624a3.775,3.775,0,0,0-4.872-3.249,4.5,4.5,0,0,0-9,.134v.315h-.4a5.643,5.643,0,0,0,0,11.286H11.3v2.679A2.661,2.661,0,0,0,9.45,20.644H5.2a2.653,2.653,0,1,0,0,1.406H9.45a2.648,2.648,0,0,0,5.109,0H18.8a2.65,2.65,0,1,0,2.554-3.356ZM1.491,10.468A4.239,4.239,0,0,1,5.722,6.231H7.527V4.509a3.1,3.1,0,1,1,6.2,0V6.9l1.118-.824a2.346,2.346,0,0,1,1.4-.46,2.371,2.371,0,0,1,2.367,2.37,2.428,2.428,0,0,1-.014.257l-.083.778h1.164a2.843,2.843,0,0,1,0,5.686H5.722a4.239,4.239,0,0,1-4.231-4.237ZM2.65,22.594a1.247,1.247,0,1,1,1.245-1.247A1.247,1.247,0,0,1,2.65,22.594Zm9.354,0a1.247,1.247,0,1,1,1.245-1.247A1.247,1.247,0,0,1,12,22.594Zm9.347,0A1.247,1.247,0,1,1,22.6,21.347,1.247,1.247,0,0,1,21.35,22.594Z" transform="translate(0 0)" fill="#3c3c3c"/>
    </g>
  </g>
</svg>
