<svg xmlns="http://www.w3.org/2000/svg" xmlns:xlink="http://www.w3.org/1999/xlink" width="24" height="24" viewBox="0 0 24 24">
  <defs>
    <clipPath id="clip-path">
      <rect id="Rectangle_1687" data-name="Rectangle 1687" width="24" height="24" transform="translate(1286 539)" fill="#3c3c3c" stroke="#707070" stroke-width="1"/>
    </clipPath>
  </defs>
  <g id="icon-tab-8" transform="translate(-1286 -539)" clip-path="url(#clip-path)">
    <g id="test" transform="translate(1286.773 539)">
      <path id="Path_964" data-name="Path 964" d="M9.17,8.5H5.42a.7.7,0,0,0,0,1.406H9.17a.7.7,0,0,0,0-1.406Z" transform="translate(-1.717 -1.699)" fill="#3c3c3c"/>
      <path id="Path_965" data-name="Path 965" d="M9.17,13.184H5.42a.7.7,0,0,0,0,1.406H9.17a.7.7,0,0,0,0-1.406Z" transform="translate(-1.717 -2.637)" fill="#3c3c3c"/>
      <path id="Path_966" data-name="Path 966" d="M9.17,17.871H5.42a.7.7,0,0,0,0,1.406H9.17a.7.7,0,0,0,0-1.406Z" transform="translate(-1.717 -3.574)" fill="#3c3c3c"/>
      <path id="Path_967" data-name="Path 967" d="M18.5,12.887V6.468a3.5,3.5,0,0,0-1.006-2.462l-2.853-2.95,0,0A3.538,3.538,0,0,0,12.127,0H3.076A2.112,2.112,0,0,0,.967,2.109V20.344a2.112,2.112,0,0,0,2.109,2.109H13.943A5.589,5.589,0,1,0,18.5,12.887ZM2.373,20.344V2.109a.7.7,0,0,1,.7-.7h9.051a2.124,2.124,0,0,1,1.5.629l2.852,2.95,0,0a2.1,2.1,0,0,1,.605,1.479v6.42a5.576,5.576,0,0,0-4.217,8.159h-9.8a.7.7,0,0,1-.7-.7Zm15.422,2.25a4.172,4.172,0,1,1,4.219-4.172A4.177,4.177,0,0,1,17.795,22.594Z" transform="translate(-0.967 0)" fill="#3c3c3c"/>
      <path id="Path_968" data-name="Path 968" d="M23.085,20.905a.7.7,0,0,0-.99.09l-1.187,1.424-.269-.538a.7.7,0,0,0-1.258.629l.75,1.5a.7.7,0,0,0,.548.384.716.716,0,0,0,.081,0,.7.7,0,0,0,.54-.253l1.875-2.25a.7.7,0,0,0-.09-.99Z" transform="translate(-4.635 -4.148)" fill="#3c3c3c"/>
      <path id="Path_969" data-name="Path 969" d="M14.795,9.9h.75a.7.7,0,0,0,0-1.406h-.75a.7.7,0,0,0,0,1.406Z" transform="translate(-3.592 -1.699)" fill="#3c3c3c"/>
      <path id="Path_970" data-name="Path 970" d="M16.248,13.887a.7.7,0,0,0-.7-.7h-.75a.7.7,0,0,0,0,1.406h.75A.7.7,0,0,0,16.248,13.887Z" transform="translate(-3.592 -2.637)" fill="#3c3c3c"/>
    </g>
  </g>
</svg>
