<svg xmlns="http://www.w3.org/2000/svg" xmlns:xlink="http://www.w3.org/1999/xlink" width="24" height="24" viewBox="0 0 24 24">
  <defs>
    <clipPath id="clip-path">
      <rect id="Rectangle_1684" data-name="Rectangle 1684" width="24" height="24" transform="translate(471 545)" fill="#3c3c3c" stroke="#707070" stroke-width="1"/>
    </clipPath>
  </defs>
  <g id="icon-tab-5" transform="translate(-471 -545)" clip-path="url(#clip-path)">
    <g id="seo" transform="translate(471 546.453)">
      <path id="Path_950" data-name="Path 950" d="M14.715,8.408a.586.586,0,0,0,0-1.172H12.74a.586.586,0,0,0-.586.586V12.51a.586.586,0,0,0,.586.586h1.975a.586.586,0,0,0,0-1.172H13.326V10.752H14.57a.586.586,0,0,0,0-1.172H13.326V8.408Z" transform="translate(-2.431 -2.9)" fill="#3c3c3c"/>
      <path id="Path_951" data-name="Path 951" d="M20.01,7.236a2.93,2.93,0,1,0,2.93,2.93A2.933,2.933,0,0,0,20.01,7.236Zm0,4.688a1.758,1.758,0,1,1,1.758-1.758A1.76,1.76,0,0,1,20.01,11.924Z" transform="translate(-3.416 -2.9)" fill="#3c3c3c"/>
      <path id="Path_952" data-name="Path 952" d="M8.42,9.659c-.574-.212-1.109-.443-1.273-.514a.323.323,0,0,1-.114-.3A.468.468,0,0,1,7.4,8.468a1.36,1.36,0,0,1,1.193.2.586.586,0,0,0,.984-.63,2.347,2.347,0,0,0-2.515-.692A1.646,1.646,0,0,0,5.873,8.675a1.488,1.488,0,0,0,.664,1.473.582.582,0,0,0,.081.044c.027.012.671.3,1.4.566.2.076.674.289.612.635a.788.788,0,0,1-.816.531,1.627,1.627,0,0,1-1.2-.5.586.586,0,1,0-.868.787,2.816,2.816,0,0,0,2.064.886,1.93,1.93,0,0,0,1.969-1.5A1.762,1.762,0,0,0,8.42,9.659Z" transform="translate(-1.119 -2.901)" fill="#3c3c3c"/>
      <path id="Path_953" data-name="Path 953" d="M23.955,19.148l-1.361-3.631V3.926a2.112,2.112,0,0,0-2.109-2.109H3.516A2.112,2.112,0,0,0,1.406,3.926V15.517L.045,19.148A.7.7,0,0,0,0,19.395V20.8A2.112,2.112,0,0,0,2.109,22.91H21.891A2.112,2.112,0,0,0,24,20.8V19.395A.7.7,0,0,0,23.955,19.148ZM2.813,3.926a.7.7,0,0,1,.7-.7H20.484a.7.7,0,0,1,.7.7V14.941H2.813ZM2.6,16.348H21.4l.879,2.344H1.718Zm20,4.453a.7.7,0,0,1-.7.7H2.109a.7.7,0,0,1-.7-.7v-.7H22.594Z" transform="translate(0 -1.816)" fill="#3c3c3c"/>
    </g>
  </g>
</svg>
