<svg xmlns="http://www.w3.org/2000/svg" xmlns:xlink="http://www.w3.org/1999/xlink" width="14" height="14" viewBox="0 0 14 14">
  <defs>
    <clipPath id="clip-path">
      <rect id="Rectangle_1937" data-name="Rectangle 1937" width="14" height="14" transform="translate(410 1141)" fill="#ff8303" stroke="#707070" stroke-width="1"/>
    </clipPath>
  </defs>
  <g id="icon-thoiluong" transform="translate(-410 -1141)" clip-path="url(#clip-path)">
    <g id="clock" transform="translate(410 1141)">
      <g id="Group_6805" data-name="Group 6805" transform="translate(6.458 3.248)">
        <g id="Group_6804" data-name="Group 6804">
          <path id="Path_1031" data-name="Path 1031" d="M11.339,9.164,9.387,7.7V4.718a.542.542,0,0,0-1.084,0V7.971a.541.541,0,0,0,.217.434l2.169,1.627a.542.542,0,0,0,.651-.868Z" transform="translate(-8.303 -4.176)" fill="#ff8303"/>
        </g>
      </g>
      <g id="Group_6807" data-name="Group 6807">
        <g id="Group_6806" data-name="Group 6806">
          <path id="Path_1032" data-name="Path 1032" d="M7,0a7,7,0,1,0,7,7A7.008,7.008,0,0,0,7,0ZM7,12.916A5.916,5.916,0,1,1,12.916,7,5.923,5.923,0,0,1,7,12.916Z" fill="#ff8303"/>
        </g>
      </g>
    </g>
  </g>
</svg>
