<svg xmlns="http://www.w3.org/2000/svg" xmlns:xlink="http://www.w3.org/1999/xlink" width="24" height="24" viewBox="0 0 24 24">
  <defs>
    <clipPath id="clip-path">
      <rect id="Rectangle_1686" data-name="Rectangle 1686" width="24" height="24" transform="translate(996 539)" fill="#3c3c3c" stroke="#707070" stroke-width="1"/>
    </clipPath>
  </defs>
  <g id="icon-tab-7" transform="translate(-996 -539)" clip-path="url(#clip-path)">
    <path id="graduation-cap" d="M23.794,17.074l-1.859-1.859V8.839L23.149,8.4a.7.7,0,0,0,0-1.322l-11.1-4.021a.7.7,0,0,0-.479,0L.464,7.079a.7.7,0,0,0,0,1.32l4.1,1.518v4.633a.7.7,0,0,0,.126.4,4.286,4.286,0,0,0,1.571,1.2,12.08,12.08,0,0,0,5.4,1.051,12.291,12.291,0,0,0,5.43-1.049,4.456,4.456,0,0,0,1.6-1.192.7.7,0,0,0,.135-.414V9.963l1.711-.617v5.87L18.67,17.074a.7.7,0,0,0,0,.994l1.859,1.859v1.56a.7.7,0,0,0,1.406,0v-1.56l1.859-1.859A.7.7,0,0,0,23.794,17.074ZM11.807,4.467l9.035,3.272-9.182,3.31-8.912-3.3Zm5.605,9.8c-2.4,2.163-9.545,1.915-11.449.007V10.438l5.449,2.019a.7.7,0,0,0,.483,0l5.518-1.989v3.8Zm3.82,4.372-1.071-1.071L21.232,16.5,22.3,17.572Z" transform="translate(996 538.397)" fill="#3c3c3c"/>
  </g>
</svg>
