<svg xmlns="http://www.w3.org/2000/svg" xmlns:xlink="http://www.w3.org/1999/xlink" width="24" height="24" viewBox="0 0 24 24">
  <defs>
    <clipPath id="clip-path">
      <rect id="Rectangle_1688" data-name="Rectangle 1688" width="24" height="24" transform="translate(1299 444)" fill="#3c3c3c" stroke="#707070" stroke-width="1"/>
    </clipPath>
  </defs>
  <g id="icon-tab-4" transform="translate(-1299 -444)" clip-path="url(#clip-path)">
    <g id="megaphone" transform="translate(1300.446 444)">
      <g id="Group_6719" data-name="Group 6719" transform="translate(0 0.895)">
        <g id="Group_6718" data-name="Group 6718">
          <path id="Path_954" data-name="Path 954" d="M21.314,9.689,13.361,1.736a2.109,2.109,0,0,0-3.239,2.671l-.011.055a14.714,14.714,0,0,1-4.037,7.543L2.426,15.653a2.108,2.108,0,0,0,0,2.982l1.988,1.988a2.108,2.108,0,0,0,2.982,0l.5-.5,3.479,3.479a2.109,2.109,0,0,0,2.982-2.982l-1.491-1.491.5-.5a2.108,2.108,0,0,0,0-2.982l-.338-.338a14.716,14.716,0,0,1,5.564-2.376l.056-.011a2.111,2.111,0,0,0,2.67-.257h0A2.111,2.111,0,0,0,21.314,9.689ZM6.4,19.629a.7.7,0,0,1-.994,0L3.42,17.641a.7.7,0,0,1,0-.994L6.9,13.168,9.881,16.15Zm6.959,1.988a.7.7,0,1,1-.994.994L8.887,19.132l.994-.994Zm-2.485-4.473c.211-.211.528-.535,1.027-.961l.464.464a.7.7,0,0,1,0,.994l-.5.5Zm.03-1.958L7.863,12.144a16.1,16.1,0,0,0,3.422-6.519l6.138,6.138A16.1,16.1,0,0,0,10.905,15.186Zm9.414-3.509a.7.7,0,0,1-.994,0L11.372,3.724a.7.7,0,0,1,.994-.994l7.953,7.953A.7.7,0,0,1,20.319,11.677Z" transform="translate(-1.808 -1.119)" fill="#3c3c3c"/>
        </g>
      </g>
      <g id="Group_6721" data-name="Group 6721" transform="translate(3.395 15.223)">
        <g id="Group_6720" data-name="Group 6720">
          <path id="Path_955" data-name="Path 955" d="M8.245,19.235a.7.7,0,0,0-.994,0l-.994.994a.7.7,0,0,0,.994.994l.994-.994A.7.7,0,0,0,8.245,19.235Z" transform="translate(-6.051 -19.029)" fill="#3c3c3c"/>
        </g>
      </g>
      <g id="Group_6723" data-name="Group 6723" transform="translate(14.079)">
        <g id="Group_6722" data-name="Group 6722">
          <path id="Path_956" data-name="Path 956" d="M20.109,0a.7.7,0,0,0-.7.7V2.109a.7.7,0,0,0,1.406,0V.7A.7.7,0,0,0,20.109,0Z" transform="translate(-19.406)" fill="#3c3c3c"/>
        </g>
      </g>
      <g id="Group_6725" data-name="Group 6725" transform="translate(18.296 5.623)">
        <g id="Group_6724" data-name="Group 6724">
          <path id="Path_957" data-name="Path 957" d="M26.787,7.029H25.381a.7.7,0,1,0,0,1.406h1.406a.7.7,0,1,0,0-1.406Z" transform="translate(-24.678 -7.029)" fill="#3c3c3c"/>
        </g>
      </g>
      <g id="Group_6727" data-name="Group 6727" transform="translate(16.89 1.406)">
        <g id="Group_6726" data-name="Group 6726">
          <path id="Path_958" data-name="Path 958" d="M25.526,1.963a.7.7,0,0,0-.994,0L23.126,3.369a.7.7,0,0,0,.994.994l1.406-1.406A.7.7,0,0,0,25.526,1.963Z" transform="translate(-22.921 -1.757)" fill="#3c3c3c"/>
        </g>
      </g>
    </g>
  </g>
</svg>
