<svg xmlns="http://www.w3.org/2000/svg" xmlns:xlink="http://www.w3.org/1999/xlink" width="50" height="50" viewBox="0 0 50 50">
  <defs>
    <clipPath id="clip-path">
      <rect id="Rectangle_1683" data-name="Rectangle 1683" width="50" height="50" transform="translate(867 835)" fill="#3c3c3c" stroke="#707070" stroke-width="1"/>
    </clipPath>
  </defs>
  <g id="Mask_Group_362" data-name="Mask Group 362" transform="translate(-867 -835)" clip-path="url(#clip-path)">
    <g id="layers" transform="translate(867 835)">
      <g id="Group_6767" data-name="Group 6767" transform="translate(0)">
        <path id="Path_12981" data-name="Path 12981" d="M50,25a1.465,1.465,0,0,0-.7-1.244l-5.081-3.132,5.087-3.166a1.465,1.465,0,0,0,0-2.485L25.778.224a1.465,1.465,0,0,0-1.556,0L.687,14.97a1.465,1.465,0,0,0,0,2.485L5.743,20.6.689,23.758a1.465,1.465,0,0,0,0,2.486l5.052,3.144L.689,32.547a1.465,1.465,0,0,0,0,2.483L24.222,49.776a1.465,1.465,0,0,0,1.555,0L49.313,35.03a1.465,1.465,0,0,0-.009-2.488L44.222,29.41l5.087-3.166A1.465,1.465,0,0,0,50,25ZM4.23,16.207,25,3.194,45.77,16.207,25,29.134ZM45.76,33.8,25,46.807,4.226,33.791l4.286-2.679,15.714,9.78a1.465,1.465,0,0,0,1.548,0l15.67-9.753ZM25,37.923,4.233,25l4.279-2.675L24.226,32.1a1.465,1.465,0,0,0,1.548,0l15.67-9.753,4.309,2.656Z" transform="translate(0 0)" fill="#3c3c3c"/>
      </g>
    </g>
  </g>
</svg>
