<svg xmlns="http://www.w3.org/2000/svg" xmlns:xlink="http://www.w3.org/1999/xlink" width="50" height="50" viewBox="0 0 50 50">
  <defs>
    <clipPath id="clip-path">
      <rect id="Rectangle_1682" data-name="Rectangle 1682" width="50" height="50" transform="translate(1155 835)" fill="#3c3c3c" stroke="#707070" stroke-width="1"/>
    </clipPath>
  </defs>
  <g id="Mask_Group_361" data-name="Mask Group 361" transform="translate(-1155 -835)" clip-path="url(#clip-path)">
    <g id="web-programming" transform="translate(1155 837.083)">
      <path id="Path_12976" data-name="Path 12976" d="M44.271,48.333H5.729A5.734,5.734,0,0,1,0,42.6V8.229A5.734,5.734,0,0,1,5.729,2.5H44.271A5.734,5.734,0,0,1,50,8.229V42.6A5.734,5.734,0,0,1,44.271,48.333ZM5.729,5.625a2.608,2.608,0,0,0-2.6,2.6V42.6a2.608,2.608,0,0,0,2.6,2.6H44.271a2.608,2.608,0,0,0,2.6-2.6V8.229a2.608,2.608,0,0,0-2.6-2.6Z" transform="translate(0 -2.5)" fill="#3c3c3c"/>
      <path id="Path_12977" data-name="Path 12977" d="M48.438,14.375H1.563a1.563,1.563,0,0,1,0-3.125H48.438a1.563,1.563,0,0,1,0,3.125Z" transform="translate(0 -3.958)" fill="#3c3c3c"/>
      <path id="Path_12978" data-name="Path 12978" d="M37.812,39.166a1.564,1.564,0,0,1-1.185-2.581l2.252-2.627-2.254-2.629A1.563,1.563,0,0,1,39,29.293l3.125,3.646a1.564,1.564,0,0,1,0,2.035L39,38.621a1.556,1.556,0,0,1-1.185.546Z" transform="translate(-6.041 -6.875)" fill="#3c3c3c"/>
      <path id="Path_12979" data-name="Path 12979" d="M20.937,39.166a1.564,1.564,0,0,1-1.187-.546l-3.125-3.646a1.564,1.564,0,0,1,0-2.035l3.125-3.646a1.563,1.563,0,0,1,2.373,2.035l-2.252,2.629,2.254,2.629a1.561,1.561,0,0,1-1.188,2.579Z" transform="translate(-2.708 -6.875)" fill="#3c3c3c"/>
      <path id="Path_12980" data-name="Path 12980" d="M27.812,41.667a1.562,1.562,0,0,1-1.525-1.912l3.125-13.542a1.563,1.563,0,1,1,3.046.7L29.333,40.455a1.558,1.558,0,0,1-1.521,1.213Z" transform="translate(-4.375 -6.25)" fill="#3c3c3c"/>
    </g>
  </g>
</svg>
