<svg xmlns="http://www.w3.org/2000/svg" xmlns:xlink="http://www.w3.org/1999/xlink" width="50" height="50" viewBox="0 0 50 50">
  <defs>
    <clipPath id="clip-path">
      <path id="Path_12967" data-name="Path 12967" d="M0,0H50V50H0Z" transform="translate(1454.51 836.814)" fill="#3c3c3c" stroke="#707070" stroke-width="1"/>
    </clipPath>
  </defs>
  <g id="Mask_Group_354" data-name="Mask Group 354" transform="translate(-1454.51 -836.814)" clip-path="url(#clip-path)">
    <g id="cloud" transform="translate(1454.078 839.561)">
      <path id="Path_12959" data-name="Path 12959" d="M25.432,40.268A7.418,7.418,0,1,1,32.85,32.85,7.426,7.426,0,0,1,25.432,40.268Zm0-11.656a4.239,4.239,0,1,0,4.239,4.239A4.243,4.243,0,0,0,25.432,28.612Zm0,0" transform="translate(0 0)" fill="#3c3c3c"/>
      <path id="Path_12960" data-name="Path 12960" d="M25.432,44.507a1.59,1.59,0,0,1-1.59-1.59V38.678a1.59,1.59,0,0,1,3.179,0v4.239A1.59,1.59,0,0,1,25.432,44.507Zm0,0" transform="translate(0 0)" fill="#3c3c3c"/>
      <path id="Path_12961" data-name="Path 12961" d="M25.432,28.612a1.59,1.59,0,0,1-1.59-1.59V22.783a1.59,1.59,0,0,1,3.179,0v4.239A1.59,1.59,0,0,1,25.432,28.612Zm0,0" transform="translate(0 0)" fill="#3c3c3c"/>
      <path id="Path_12962" data-name="Path 12962" d="M30.479,31.536a1.591,1.591,0,0,1-.8-2.967l3.666-2.12a1.59,1.59,0,0,1,1.59,2.753l-3.666,2.119A1.564,1.564,0,0,1,30.479,31.536Zm0,0" transform="translate(0 0)" fill="#3c3c3c"/>
      <path id="Path_12963" data-name="Path 12963" d="M16.724,39.463a1.591,1.591,0,0,1-.8-2.967l3.666-2.119a1.589,1.589,0,0,1,1.59,2.753l-3.666,2.119A1.57,1.57,0,0,1,16.724,39.463Zm0,0" transform="translate(0 0)" fill="#3c3c3c"/>
      <path id="Path_12964" data-name="Path 12964" d="M20.386,31.536a1.564,1.564,0,0,1-.793-.214L15.927,29.2a1.59,1.59,0,0,1,1.59-2.753l3.666,2.12a1.591,1.591,0,0,1-.8,2.967Zm0,0" transform="translate(0 0)" fill="#3c3c3c"/>
      <path id="Path_12965" data-name="Path 12965" d="M34.141,39.463a1.565,1.565,0,0,1-.793-.214l-3.666-2.119a1.589,1.589,0,0,1,1.59-2.753L34.938,36.5a1.591,1.591,0,0,1-.8,2.967Zm0,0" transform="translate(0 0)" fill="#3c3c3c"/>
      <path id="Path_12966" data-name="Path 12966" d="M37.871,33.91h-.252a1.59,1.59,0,1,1,0-3.179h.252a9.665,9.665,0,0,0,.6-19.318,1.594,1.594,0,0,1-1.352-.909,12.951,12.951,0,0,0-24.457,3.6,1.591,1.591,0,0,1-1.575,1.365,7.632,7.632,0,1,0-.165,15.259h2.3a1.59,1.59,0,0,1,0,3.179h-2.3A10.8,10.8,0,0,1,9.756,12.354,16.146,16.146,0,0,1,39.575,8.323a12.841,12.841,0,0,1-1.7,25.587Zm0,0" fill="#3c3c3c"/>
    </g>
  </g>
</svg>
