<svg xmlns="http://www.w3.org/2000/svg" xmlns:xlink="http://www.w3.org/1999/xlink" width="70" height="70" viewBox="0 0 70 70">
  <defs>
    <clipPath id="clip-path">
      <rect width="70" height="70" fill="none"/>
    </clipPath>
  </defs>
  <g id="Repeat_Grid_1" data-name="Repeat Grid 1" opacity="0.1" clip-path="url(#clip-path)">
    <g transform="translate(-1232 -11418)">
      <circle id="Ellipse_203" data-name="Ellipse 203" cx="2" cy="2" r="2" transform="translate(1232 11418)" fill="#fff"/>
      <circle id="Ellipse_204" data-name="Ellipse 204" cx="2" cy="2" r="2" transform="translate(1232 11431)" fill="#fff"/>
      <circle id="Ellipse_205" data-name="Ellipse 205" cx="2" cy="2" r="2" transform="translate(1232 11444)" fill="#fff"/>
    </g>
    <g transform="translate(-1219 -11418)">
      <circle id="Ellipse_203-2" data-name="Ellipse 203" cx="2" cy="2" r="2" transform="translate(1232 11418)" fill="#fff"/>
      <circle id="Ellipse_204-2" data-name="Ellipse 204" cx="2" cy="2" r="2" transform="translate(1232 11431)" fill="#fff"/>
      <circle id="Ellipse_205-2" data-name="Ellipse 205" cx="2" cy="2" r="2" transform="translate(1232 11444)" fill="#fff"/>
    </g>
    <g transform="translate(-1206 -11418)">
      <circle id="Ellipse_203-3" data-name="Ellipse 203" cx="2" cy="2" r="2" transform="translate(1232 11418)" fill="#fff"/>
      <circle id="Ellipse_204-3" data-name="Ellipse 204" cx="2" cy="2" r="2" transform="translate(1232 11431)" fill="#fff"/>
      <circle id="Ellipse_205-3" data-name="Ellipse 205" cx="2" cy="2" r="2" transform="translate(1232 11444)" fill="#fff"/>
    </g>
    <g transform="translate(-1193 -11418)">
      <circle id="Ellipse_203-4" data-name="Ellipse 203" cx="2" cy="2" r="2" transform="translate(1232 11418)" fill="#fff"/>
      <circle id="Ellipse_204-4" data-name="Ellipse 204" cx="2" cy="2" r="2" transform="translate(1232 11431)" fill="#fff"/>
      <circle id="Ellipse_205-4" data-name="Ellipse 205" cx="2" cy="2" r="2" transform="translate(1232 11444)" fill="#fff"/>
    </g>
    <g transform="translate(-1180 -11418)">
      <circle id="Ellipse_203-5" data-name="Ellipse 203" cx="2" cy="2" r="2" transform="translate(1232 11418)" fill="#fff"/>
      <circle id="Ellipse_204-5" data-name="Ellipse 204" cx="2" cy="2" r="2" transform="translate(1232 11431)" fill="#fff"/>
      <circle id="Ellipse_205-5" data-name="Ellipse 205" cx="2" cy="2" r="2" transform="translate(1232 11444)" fill="#fff"/>
    </g>
    <g transform="translate(-1167 -11418)">
      <circle id="Ellipse_203-6" data-name="Ellipse 203" cx="2" cy="2" r="2" transform="translate(1232 11418)" fill="#fff"/>
      <circle id="Ellipse_204-6" data-name="Ellipse 204" cx="2" cy="2" r="2" transform="translate(1232 11431)" fill="#fff"/>
      <circle id="Ellipse_205-6" data-name="Ellipse 205" cx="2" cy="2" r="2" transform="translate(1232 11444)" fill="#fff"/>
    </g>
    <g transform="translate(-1232 -11379)">
      <circle id="Ellipse_203-7" data-name="Ellipse 203" cx="2" cy="2" r="2" transform="translate(1232 11418)" fill="#fff"/>
      <circle id="Ellipse_204-7" data-name="Ellipse 204" cx="2" cy="2" r="2" transform="translate(1232 11431)" fill="#fff"/>
      <circle id="Ellipse_205-7" data-name="Ellipse 205" cx="2" cy="2" r="2" transform="translate(1232 11444)" fill="#fff"/>
    </g>
    <g transform="translate(-1219 -11379)">
      <circle id="Ellipse_203-8" data-name="Ellipse 203" cx="2" cy="2" r="2" transform="translate(1232 11418)" fill="#fff"/>
      <circle id="Ellipse_204-8" data-name="Ellipse 204" cx="2" cy="2" r="2" transform="translate(1232 11431)" fill="#fff"/>
      <circle id="Ellipse_205-8" data-name="Ellipse 205" cx="2" cy="2" r="2" transform="translate(1232 11444)" fill="#fff"/>
    </g>
    <g transform="translate(-1206 -11379)">
      <circle id="Ellipse_203-9" data-name="Ellipse 203" cx="2" cy="2" r="2" transform="translate(1232 11418)" fill="#fff"/>
      <circle id="Ellipse_204-9" data-name="Ellipse 204" cx="2" cy="2" r="2" transform="translate(1232 11431)" fill="#fff"/>
      <circle id="Ellipse_205-9" data-name="Ellipse 205" cx="2" cy="2" r="2" transform="translate(1232 11444)" fill="#fff"/>
    </g>
    <g transform="translate(-1193 -11379)">
      <circle id="Ellipse_203-10" data-name="Ellipse 203" cx="2" cy="2" r="2" transform="translate(1232 11418)" fill="#fff"/>
      <circle id="Ellipse_204-10" data-name="Ellipse 204" cx="2" cy="2" r="2" transform="translate(1232 11431)" fill="#fff"/>
      <circle id="Ellipse_205-10" data-name="Ellipse 205" cx="2" cy="2" r="2" transform="translate(1232 11444)" fill="#fff"/>
    </g>
    <g transform="translate(-1180 -11379)">
      <circle id="Ellipse_203-11" data-name="Ellipse 203" cx="2" cy="2" r="2" transform="translate(1232 11418)" fill="#fff"/>
      <circle id="Ellipse_204-11" data-name="Ellipse 204" cx="2" cy="2" r="2" transform="translate(1232 11431)" fill="#fff"/>
      <circle id="Ellipse_205-11" data-name="Ellipse 205" cx="2" cy="2" r="2" transform="translate(1232 11444)" fill="#fff"/>
    </g>
    <g transform="translate(-1167 -11379)">
      <circle id="Ellipse_203-12" data-name="Ellipse 203" cx="2" cy="2" r="2" transform="translate(1232 11418)" fill="#fff"/>
      <circle id="Ellipse_204-12" data-name="Ellipse 204" cx="2" cy="2" r="2" transform="translate(1232 11431)" fill="#fff"/>
      <circle id="Ellipse_205-12" data-name="Ellipse 205" cx="2" cy="2" r="2" transform="translate(1232 11444)" fill="#fff"/>
    </g>
  </g>
</svg>
