<svg xmlns="http://www.w3.org/2000/svg" xmlns:xlink="http://www.w3.org/1999/xlink" width="44" height="44" viewBox="0 0 44 44">
  <defs>
    <clipPath id="clip-path">
      <rect id="Rectangle_1704" data-name="Rectangle 1704" width="44" height="44" transform="translate(1520 11156)" fill="#fff" stroke="#707070" stroke-width="1"/>
    </clipPath>
  </defs>
  <g id="Mask_Group_368" data-name="Mask Group 368" transform="translate(-1520 -11156)" clip-path="url(#clip-path)">
    <path id="content" d="M8.594,9.711a1.719,1.719,0,0,1,1.719-1.719H33.688a1.719,1.719,0,0,1,0,3.438H10.313A1.719,1.719,0,0,1,8.594,9.711Zm26.813,6.875a1.719,1.719,0,0,0-1.719-1.719H10.313a1.719,1.719,0,0,0,0,3.438H33.688A1.719,1.719,0,0,0,35.406,16.586ZM10.313,21.742a1.719,1.719,0,0,0,0,3.438h7.906a1.719,1.719,0,0,0,0-3.437ZM42.491,35.2A5.156,5.156,0,0,1,35.2,42.49l-9.4-9.416a1.715,1.715,0,0,1-.44-.756l-1.922-6.937a1.719,1.719,0,0,1,2.156-2.1l6.766,2.055a1.716,1.716,0,0,1,.717.43Zm-13.94-4.234,6.318,6.329L37.3,34.863,30.947,28.5l-3.363-1.022Zm11.508,6.664-.331-.332L37.3,39.727l.332.333a1.719,1.719,0,0,0,2.429-2.432ZM37.125,0H6.875A6.883,6.883,0,0,0,0,6.875v30.25A6.883,6.883,0,0,0,6.875,44H27.93a1.719,1.719,0,0,0,0-3.437H6.875a3.442,3.442,0,0,1-3.437-3.437V6.875A3.442,3.442,0,0,1,6.875,3.438h30.25a3.442,3.442,0,0,1,3.438,3.438V28.016a1.719,1.719,0,0,0,3.438,0V6.875A6.883,6.883,0,0,0,37.125,0Zm0,0" transform="translate(1520 11156)" fill="#fff"/>
  </g>
</svg>
