<svg xmlns="http://www.w3.org/2000/svg" xmlns:xlink="http://www.w3.org/1999/xlink" width="36" height="36" viewBox="0 0 36 36">
  <defs>
    <clipPath id="clip-path">
      <rect id="Rectangle_1526" data-name="Rectangle 1526" width="36" height="36" transform="translate(420 3612)" fill="#3c3c3c" stroke="#707070" stroke-width="1"/>
    </clipPath>
  </defs>
  <g id="Mask_Group_315" data-name="Mask Group 315" transform="translate(-420 -3612)" clip-path="url(#clip-path)">
    <path id="toolbox" d="M32.836,5.7H24.615V3.3A1.749,1.749,0,0,0,22.868,1.55H13.132A1.749,1.749,0,0,0,11.385,3.3V5.7H3.164A3.168,3.168,0,0,0,0,8.863V31.286A3.168,3.168,0,0,0,3.164,34.45H32.836A3.168,3.168,0,0,0,36,31.286V8.863A3.168,3.168,0,0,0,32.836,5.7ZM22.505,3.659V5.7h-9.01V3.659ZM32.836,7.809a1.056,1.056,0,0,1,1.055,1.055v6.412h-9.3a6.615,6.615,0,0,0-1.254-2.931,6.736,6.736,0,0,0-3.4-2.378,1.055,1.055,0,0,0-1.361,1.009v3.3l-.582.25-.582-.25v-3.3a1.055,1.055,0,0,0-1.361-1.009,6.736,6.736,0,0,0-3.4,2.378,6.615,6.615,0,0,0-1.254,2.931h-9.3V8.863A1.056,1.056,0,0,1,3.164,7.808H32.836ZM22.572,16.36a4.572,4.572,0,1,1-7.264-3.7v2.31a1.054,1.054,0,0,0,.638.969l1.637.7a1.054,1.054,0,0,0,.834,0l1.637-.7a1.055,1.055,0,0,0,.638-.969v-2.31a4.546,4.546,0,0,1,1.881,3.7Zm-6.519,6.392a6.688,6.688,0,0,0,3.893,0v3.215H16.054ZM2.109,31.286v-13.9H11.4a6.687,6.687,0,0,0,2.547,4.281v5.356A1.055,1.055,0,0,0,15,28.077h6a1.055,1.055,0,0,0,1.055-1.055V21.666A6.686,6.686,0,0,0,24.6,17.385h9.288v13.9a1.056,1.056,0,0,1-1.055,1.055H3.164A1.056,1.056,0,0,1,2.109,31.286Z" transform="translate(420 3612)" fill="#3c3c3c"/>
  </g>
</svg>
