<svg xmlns="http://www.w3.org/2000/svg" xmlns:xlink="http://www.w3.org/1999/xlink" width="40" height="40" viewBox="0 0 40 40">
  <defs>
    <clipPath id="clip-path">
      <rect id="Rectangle_1525" data-name="Rectangle 1525" width="40" height="40" transform="translate(1156 3557)" fill="#fff" stroke="#707070" stroke-width="1"/>
    </clipPath>
  </defs>
  <g id="Mask_Group_313" data-name="Mask Group 313" transform="translate(-1156 -3557)" clip-path="url(#clip-path)">
    <g id="settings_1_" data-name="settings (1)" transform="translate(1151.369 3552.371)">
      <path id="Path_12907" data-name="Path 12907" d="M8.254,23.659a16.93,16.93,0,0,0,.038,2.388L5.246,28.875a1.537,1.537,0,0,0-.44,1.522A19.118,19.118,0,0,0,6.78,35.04a1.518,1.518,0,0,0,1.432.764l4.153-.272a14.89,14.89,0,0,0,1.709,1.678l-.142,4.147a1.534,1.534,0,0,0,.784,1.395,18.74,18.74,0,0,0,4.537,1.815,1.661,1.661,0,0,0,1.669-.43l2.739-3.1a16.9,16.9,0,0,0,2.386-.038s2.829,3.051,2.86,3.073a1.623,1.623,0,0,0,1.661.363A19.109,19.109,0,0,0,35.04,42.51a1.643,1.643,0,0,0,.762-1.432Q35.666,39,35.535,36.92a12.007,12.007,0,0,0,.947-.931c.092-.1.588-.777.728-.773q2.067.072,4.135.149a1.62,1.62,0,0,0,1.405-.79,18.522,18.522,0,0,0,1.818-4.541,1.656,1.656,0,0,0-.431-1.664l-3.1-2.739c.009-.169-.025-2.229-.038-2.388,0,0,3.05-2.828,3.063-2.848a1.7,1.7,0,0,0,.379-1.652,17.643,17.643,0,0,0-.8-2.246,20.363,20.363,0,0,0-1.131-2.249,1.6,1.6,0,0,0-1.432-.764q-2.078.136-4.158.268c-.1-.115-1.579-1.569-1.7-1.675q.072-2.069.149-4.136a1.613,1.613,0,0,0-.79-1.405,18.564,18.564,0,0,0-4.683-1.861,1.528,1.528,0,0,0-1.521.476l-2.74,3.107a16.25,16.25,0,0,0-2.388.038L20.416,5.249a1.531,1.531,0,0,0-1.524-.44A18.74,18.74,0,0,0,14.227,6.8a1.538,1.538,0,0,0-.739,1.418l.272,4.153a14.9,14.9,0,0,0-1.68,1.709l-4.147-.143a1.526,1.526,0,0,0-1.395.784A18.551,18.551,0,0,0,4.675,19.4a1.542,1.542,0,0,0,.477,1.521Zm.537-6.616,3.961.135a1.549,1.549,0,0,0,1.289-.622,11.9,11.9,0,0,1,2.251-2.289,1.54,1.54,0,0,0,.591-1.315s-.26-3.967-.26-3.969a9.785,9.785,0,0,1,2.192-.933l2.7,2.911a1.528,1.528,0,0,0,1.342.477,13.489,13.489,0,0,1,3.259-.055,1.543,1.543,0,0,0,1.315-.513l2.611-2.957a15.565,15.565,0,0,1,2.206.879q-.067,1.977-.14,3.952a2.016,2.016,0,0,0,.967,1.592,12.46,12.46,0,0,1,1.949,1.957,1.576,1.576,0,0,0,1.315.591c1.319-.109,2.643-.174,3.964-.259q.277.543.508,1.081c.168.4.311.762.431,1.11,0,0-2.9,2.7-2.911,2.7a1.934,1.934,0,0,0-.45,1.7A13.221,13.221,0,0,1,37.9,26.1a1.785,1.785,0,0,0,.511,1.329l2.962,2.612a15.224,15.224,0,0,1-.879,2.2c-1.316-.045-2.636-.074-3.95-.142a1.709,1.709,0,0,0-1.39.733A12.423,12.423,0,0,1,33,35.022a1.586,1.586,0,0,0-.591,1.316c.086,1.321.183,2.643.257,3.964-.36.185-.72.354-1.078.506-.4.169-.762.313-1.111.433,0,0-2.685-2.894-2.689-2.9a1.652,1.652,0,0,0-1.353-.49,13.489,13.489,0,0,1-3.259.055,1.646,1.646,0,0,0-1.315.506L19.244,41.38a15.276,15.276,0,0,1-2.2-.879l.135-3.961a1.541,1.541,0,0,0-.62-1.29A11.849,11.849,0,0,1,14.267,33a1.529,1.529,0,0,0-1.315-.591l-3.964.257a16.96,16.96,0,0,1-.939-2.191l2.911-2.7a1.543,1.543,0,0,0,.477-1.339,13.526,13.526,0,0,1-.054-3.262,1.543,1.543,0,0,0-.513-1.313L7.913,19.249a15.492,15.492,0,0,1,.879-2.206Z" fill="#fff"/>
      <path id="Path_12908" data-name="Path 12908" d="M24.645,32.343a7.7,7.7,0,1,0-7.7-7.7A7.706,7.706,0,0,0,24.645,32.343Zm0-12.315a4.618,4.618,0,1,1-4.618,4.618A4.624,4.624,0,0,1,24.645,20.028Z" fill="#fff"/>
    </g>
  </g>
</svg>
