<svg xmlns="http://www.w3.org/2000/svg" xmlns:xlink="http://www.w3.org/1999/xlink" width="26" height="26" viewBox="0 0 26 26">
  <defs>
    <clipPath id="clip-path">
      <rect id="Rectangle_1225" data-name="Rectangle 1225" width="26" height="26" transform="translate(1075 700)" fill="#fff" stroke="#707070" stroke-width="1"/>
    </clipPath>
  </defs>
  <g id="Mask_Group_276" data-name="Mask Group 276" transform="translate(-1075 -700)" clip-path="url(#clip-path)">
    <g id="email_1_" data-name="email (1)" transform="translate(1075 703.859)">
      <g id="Group_463" data-name="Group 463">
        <path id="Path_797" data-name="Path 797" d="M23.715,4.453H2.285A2.288,2.288,0,0,0,0,6.738V20.449a2.288,2.288,0,0,0,2.285,2.285h21.43A2.288,2.288,0,0,0,26,20.449V6.738A2.288,2.288,0,0,0,23.715,4.453Zm-.351,1.523L13.59,15.782a.889.889,0,0,1-1.181,0L2.636,5.977ZM1.523,20.169V7.018l6.554,6.575Zm1.113,1.042,6.517-6.538,2.178,2.185a2.411,2.411,0,0,0,3.339,0l2.178-2.185,6.517,6.538Zm21.841-1.042-6.554-6.575,6.554-6.575Z" transform="translate(0 -4.453)" fill="#fff"/>
      </g>
    </g>
  </g>
</svg>
