<svg xmlns="http://www.w3.org/2000/svg" xmlns:xlink="http://www.w3.org/1999/xlink" width="26" height="26" viewBox="0 0 26 26">
  <defs>
    <clipPath id="clip-path">
      <rect id="Rectangle_1227" data-name="Rectangle 1227" width="26" height="26" transform="translate(1075 800)" fill="#fff" stroke="#707070" stroke-width="1"/>
    </clipPath>
  </defs>
  <g id="Mask_Group_278" data-name="Mask Group 278" transform="translate(-1075 -800)" clip-path="url(#clip-path)">
    <g id="Layer_3" data-name="Layer 3" transform="translate(1075 800)">
      <path id="Path_799" data-name="Path 799" d="M26.164,19.715c-.046-.038-5.236-3.753-6.645-3.509-.677.12-1.064.581-1.84,1.505-.125.149-.426.505-.658.759a10.8,10.8,0,0,1-1.431-.582,11.873,11.873,0,0,1-5.478-5.478,10.8,10.8,0,0,1-.582-1.431c.255-.233.612-.534.764-.662.92-.771,1.381-1.159,1.5-1.836.245-1.4-3.471-6.6-3.509-6.645A1.984,1.984,0,0,0,6.807,1C5.3,1,1,6.578,1,7.518c0,.055.079,5.6,6.923,12.567C14.877,26.921,20.427,27,20.482,27,21.422,27,27,22.7,27,21.193a1.982,1.982,0,0,0-.836-1.479Zm-5.777,5.547c-.757-.062-5.415-.677-11.238-6.4C3.4,13.009,2.8,8.339,2.739,7.615A23.447,23.447,0,0,1,6.818,2.8c.035.035.081.087.14.154a30.672,30.672,0,0,1,3.1,5.255,10.3,10.3,0,0,1-.881.79,8.7,8.7,0,0,0-1.31,1.232l-.211.295.062.356a9.9,9.9,0,0,0,.836,2.289,13.615,13.615,0,0,0,6.282,6.281,9.87,9.87,0,0,0,2.289.837l.356.062.295-.211a8.768,8.768,0,0,0,1.238-1.316c.271-.324.634-.757.771-.879a30.475,30.475,0,0,1,5.268,3.1c.072.061.122.107.156.138a23.427,23.427,0,0,1-4.82,4.079Z" transform="translate(-1 -1)" fill="#fff"/>
    </g>
  </g>
</svg>
