<svg xmlns="http://www.w3.org/2000/svg" xmlns:xlink="http://www.w3.org/1999/xlink" width="36" height="36" viewBox="0 0 36 36">
  <defs>
    <clipPath id="clip-path">
      <rect id="Rectangle_1562" data-name="Rectangle 1562" width="36" height="36" transform="translate(1263.809 11172.81)" fill="#fff" stroke="#707070" stroke-width="1"/>
    </clipPath>
  </defs>
  <g id="Mask_Group_321" data-name="Mask Group 321" transform="translate(-1263.809 -11172.81)" clip-path="url(#clip-path)">
    <g id="Layer_2" data-name="Layer 2" transform="translate(1263.809 11172.809)">
      <g id="_01.facebook" data-name="01.facebook" transform="translate(0)">
        <circle id="background" cx="18" cy="18" r="18" fill="#334c8c"/>
        <path id="icon" d="M22.109,15.984l-.3,2.484a.47.47,0,0,1-.47.418H18.761v7.372a.333.333,0,0,1-.329.336H15.8a.333.333,0,0,1-.329-.338l.014-7.37H13.53a.47.47,0,0,1-.47-.47V15.932a.47.47,0,0,1,.47-.47h1.944V13.054c0-2.787,1.658-4.3,4.085-4.3h1.989a.47.47,0,0,1,.47.47v2.092a.47.47,0,0,1-.47.47H20.33c-1.32.021-1.568.653-1.568,1.6v2.078h2.89a.47.47,0,0,1,.458.528Z" transform="translate(0.413 0.328)" fill="#fff"/>
      </g>
    </g>
  </g>
</svg>
