<svg xmlns="http://www.w3.org/2000/svg" xmlns:xlink="http://www.w3.org/1999/xlink" width="36" height="36" viewBox="0 0 36 36">
  <defs>
    <clipPath id="clip-path">
      <rect id="Rectangle_1566" data-name="Rectangle 1566" width="36" height="36" transform="translate(1414 11173)" fill="#fff" stroke="#707070" stroke-width="1"/>
    </clipPath>
  </defs>
  <g id="Mask_Group_324" data-name="Mask Group 324" transform="translate(-1414 -11173)" clip-path="url(#clip-path)">
    <g id="Layer_2" data-name="Layer 2" transform="translate(1414 11173)">
      <g id="_03.skype" data-name="03.skype">
        <circle id="background" cx="18" cy="18" r="18" fill="#1c98d6"/>
        <path id="icon" d="M26.025,19.092a2.312,2.312,0,0,1-.419-1.374,7.858,7.858,0,0,0-10.558-7.378,2.333,2.333,0,0,1-1.421.066,3.836,3.836,0,0,0-4.152,5.938,2.316,2.316,0,0,1,.419,1.374A7.858,7.858,0,0,0,20.452,25.1a2.333,2.333,0,0,1,1.421-.066,3.834,3.834,0,0,0,4.152-5.938ZM17.75,16.238l.289.071c1.582.377,3.974.947,3.974,3.583a2.871,2.871,0,0,1-1.8,2.8,6.34,6.34,0,0,1-2.463.4h-.111a5.68,5.68,0,0,1-4.119-2.016,1.184,1.184,0,1,1,1.847-1.459,3.525,3.525,0,0,0,2.271,1.123h.111c1.506.024,1.857-.441,1.895-.836.057-.474-.339-.824-1.895-1.22l-.258-.064c-1.509-.358-3.789-.9-3.789-3.328,0-.744.3-3.131,4.043-3.221h.223a5.294,5.294,0,0,1,4.026,2.053A1.184,1.184,0,0,1,20.1,15.527a3.553,3.553,0,0,0-2.132-1.094L17.75,14.4c-.876-.024-1.682.308-1.682.777,0,.512.242.706,1.682,1.059Z" transform="translate(0.25 0.282)" fill="#fff"/>
      </g>
    </g>
  </g>
</svg>
