<svg xmlns="http://www.w3.org/2000/svg" xmlns:xlink="http://www.w3.org/1999/xlink" width="40" height="40" viewBox="0 0 40 40">
  <defs>
    <clipPath id="clip-path">
      <rect id="Rectangle_1401" data-name="Rectangle 1401" width="40" height="40" transform="translate(375 3569)" fill="#ff8303" stroke="#707070" stroke-width="1"/>
    </clipPath>
  </defs>
  <g id="Mask_Group_282" data-name="Mask Group 282" transform="translate(-375 -3569)" clip-path="url(#clip-path)">
    <g id="coding" transform="translate(375 3569)">
      <path id="Path_782" data-name="Path 782" d="M16.141,9.718a1.172,1.172,0,0,0-1.657,0L12.14,12.062a1.172,1.172,0,0,0,0,1.657l2.344,2.344a1.172,1.172,0,0,0,1.657-1.657l-1.515-1.515,1.515-1.515A1.172,1.172,0,0,0,16.141,9.718Z" fill="#ff8303"/>
      <path id="Path_783" data-name="Path 783" d="M27.86,13.719a1.172,1.172,0,0,0,0-1.657L25.516,9.718a1.172,1.172,0,0,0-1.657,1.657l1.515,1.515-1.515,1.515a1.172,1.172,0,0,0,1.657,1.657Z" fill="#ff8303"/>
      <path id="Path_784" data-name="Path 784" d="M22.309,8.487a1.172,1.172,0,1,0-2.274-.568l-2.344,9.375a1.172,1.172,0,1,0,2.274.568Z" fill="#ff8303"/>
      <path id="Path_785" data-name="Path 785" d="M32.891,12.891a12.891,12.891,0,0,0-25.781,0c0,3.906,1.906,6.448,3.75,8.906,1.468,1.957,2.864,3.82,3.2,6.328H12.969a1.172,1.172,0,0,0,0,2.344h1.172v2.5H12.969a1.172,1.172,0,0,0,0,2.344h1.172v1.172A3.52,3.52,0,0,0,17.656,40h4.688a3.52,3.52,0,0,0,3.516-3.516V35.313h1.172a1.172,1.172,0,0,0,0-2.344H25.859v-2.5h1.172a1.172,1.172,0,0,0,0-2.344H25.938c.339-2.508,1.735-4.371,3.2-6.328C30.984,19.339,32.891,16.8,32.891,12.891ZM23.516,36.484a1.173,1.173,0,0,1-1.172,1.172H17.656a1.173,1.173,0,0,1-1.172-1.172V35.313h7.031Zm-7.031-3.516v-2.5h7.031v2.5Zm7.092-4.844H16.424c-.335-3.26-2.037-5.531-3.69-7.734-1.687-2.25-3.281-4.375-3.281-7.5a10.547,10.547,0,1,1,21.094,0c0,3.125-1.594,5.25-3.281,7.5C25.613,22.594,23.911,24.865,23.576,28.125Z" fill="#ff8303"/>
    </g>
  </g>
</svg>
