<svg xmlns="http://www.w3.org/2000/svg" xmlns:xlink="http://www.w3.org/1999/xlink" width="40" height="40" viewBox="0 0 40 40">
  <defs>
    <clipPath id="clip-path">
      <rect id="Rectangle_1390" data-name="Rectangle 1390" width="40" height="40" transform="translate(1075 2917)" fill="#ff8303" stroke="#707070" stroke-width="1"/>
    </clipPath>
  </defs>
  <g id="Mask_Group_278" data-name="Mask Group 278" transform="translate(-1075 -2917)" clip-path="url(#clip-path)">
    <g id="type" transform="translate(1075 2917)">
      <g id="Group_619" data-name="Group 619">
        <path id="Path_770" data-name="Path 770" d="M39.091,0H.909A.909.909,0,0,0,0,.909V10a.909.909,0,0,0,1.818,0A2.731,2.731,0,0,1,4.546,7.273H16.364V35.454a2.731,2.731,0,0,1-2.727,2.727.909.909,0,1,0,0,1.818H26.4a.909.909,0,1,0,0-1.818h-.036a2.731,2.731,0,0,1-2.727-2.727V7.273H35.454A2.731,2.731,0,0,1,38.182,10,.909.909,0,1,0,40,10V.909A.91.91,0,0,0,39.091,0Zm-.909,6.365a4.525,4.525,0,0,0-2.727-.911H22.727a.909.909,0,0,0-.909.909V35.454a4.529,4.529,0,0,0,.911,2.727H17.271a4.529,4.529,0,0,0,.911-2.727V6.364a.909.909,0,0,0-.909-.909H4.545a4.517,4.517,0,0,0-2.727.911V1.818H38.182Z" fill="#ff8303"/>
      </g>
    </g>
  </g>
</svg>
