<svg xmlns="http://www.w3.org/2000/svg" xmlns:xlink="http://www.w3.org/1999/xlink" width="40" height="40" viewBox="0 0 40 40">
  <defs>
    <clipPath id="clip-path">
      <rect id="Rectangle_1391" data-name="Rectangle 1391" width="40" height="40" transform="translate(1075 3101)" fill="#ff8303" stroke="#707070" stroke-width="1"/>
    </clipPath>
  </defs>
  <g id="Mask_Group_280" data-name="Mask Group 280" transform="translate(-1075 -3101)" clip-path="url(#clip-path)">
    <g id="color-palette" transform="translate(1075.039 3101)">
      <path id="Path_772" data-name="Path 772" d="M19.922,0a20,20,0,0,0,0,40c4.9,0,6.59-2.325,7.164-3.71a5.874,5.874,0,0,0-1.3-6.243,2.858,2.858,0,0,1,0-4.038,2.924,2.924,0,0,1,4.093,0,5.954,5.954,0,0,0,6.319,1.35c4.178-1.731,3.679-7.584,3.72-7.71v-.022A20.05,20.05,0,0,0,19.922,0ZM35.3,25.193a3.67,3.67,0,0,1-3.765-.842,5.266,5.266,0,0,0-7.407,0,5.2,5.2,0,0,0,0,7.353,3.531,3.531,0,0,1,.789,3.689c-.6,1.46-2.38,2.263-5,2.263a17.656,17.656,0,1,1,17.656-18C37.553,19.812,37.855,24.137,35.3,25.193Zm0,0" fill="#ff8303"/>
      <path id="Path_773" data-name="Path 773" d="M28.2,17.656a3.516,3.516,0,1,0,3.516-3.516A3.52,3.52,0,0,0,28.2,17.656Zm4.688,0a1.172,1.172,0,1,1-1.172-1.172A1.173,1.173,0,0,1,32.891,17.656Zm0,0" fill="#ff8303"/>
      <path id="Path_774" data-name="Path 774" d="M17.578,4.766a3.516,3.516,0,1,0,3.516,3.516A3.52,3.52,0,0,0,17.578,4.766Zm0,4.688A1.172,1.172,0,1,1,18.75,8.281,1.173,1.173,0,0,1,17.578,9.453Zm0,0" fill="#ff8303"/>
      <path id="Path_775" data-name="Path 775" d="M10.547,18.828a3.516,3.516,0,1,0-3.516-3.516A3.52,3.52,0,0,0,10.547,18.828Zm0-4.687a1.172,1.172,0,1,1-1.172,1.172A1.173,1.173,0,0,1,10.547,14.141Zm0,0" fill="#ff8303"/>
      <path id="Path_776" data-name="Path 776" d="M10.547,21.172a3.516,3.516,0,1,0,3.516,3.516A3.52,3.52,0,0,0,10.547,21.172Zm0,4.688a1.172,1.172,0,1,1,1.172-1.172A1.173,1.173,0,0,1,10.547,25.859Zm0,0" fill="#ff8303"/>
      <path id="Path_777" data-name="Path 777" d="M17.578,28.2a3.516,3.516,0,1,0,3.516,3.516A3.52,3.52,0,0,0,17.578,28.2Zm0,4.688a1.172,1.172,0,1,1,1.172-1.172A1.173,1.173,0,0,1,17.578,32.891Zm0,0" fill="#ff8303"/>
    </g>
  </g>
</svg>
